<?xml version="1.0" encoding="UTF-8"?>
<svg xmlns="http://www.w3.org/2000/svg" xmlns:xlink="http://www.w3.org/1999/xlink" width="268px" height="300px" viewBox="0 0 268 300" version="1.1">
<g id="surface1">
<path style=" stroke:none;fill-rule:evenodd;fill:rgb(92.54902%,23.529412%,1.568627%);fill-opacity:1;" d="M 64.96875 84.265625 C 71.035156 84.285156 80.925781 84.285156 86.941406 84.265625 C 92.960938 84.246094 87.996094 84.230469 75.910156 84.230469 C 63.824219 84.230469 58.898438 84.246094 64.96875 84.265625 M 180.195312 84.265625 C 186.40625 84.285156 196.566406 84.285156 202.777344 84.265625 C 208.984375 84.246094 203.90625 84.230469 191.484375 84.230469 C 179.066406 84.230469 173.988281 84.246094 180.195312 84.265625 M 64.554688 215.800781 C 70.394531 215.820312 79.953125 215.820312 85.792969 215.800781 C 91.632812 215.78125 86.855469 215.765625 75.175781 215.765625 C 63.492188 215.765625 58.714844 215.78125 64.554688 215.800781 M 126.863281 215.800781 C 128.210938 215.824219 130.410156 215.824219 131.753906 215.800781 C 133.101562 215.777344 132 215.761719 129.308594 215.761719 C 126.621094 215.761719 125.519531 215.777344 126.863281 215.800781 M 176.980469 215.800781 C 183.78125 215.820312 194.90625 215.820312 201.703125 215.800781 C 208.503906 215.78125 202.941406 215.765625 189.34375 215.765625 C 175.746094 215.765625 170.183594 215.78125 176.980469 215.800781 "/>
<path style=" stroke:none;fill-rule:evenodd;fill:rgb(92.54902%,26.666667%,1.568627%);fill-opacity:1;" d="M 131.1875 13.859375 C 130.707031 14.046875 130.164062 14.25 129.980469 14.3125 C 129.796875 14.375 129.132812 14.617188 128.507812 14.851562 C 127.878906 15.085938 126.882812 15.445312 126.296875 15.652344 C 125.707031 15.855469 125.070312 16.085938 124.886719 16.160156 C 124.378906 16.367188 123.625 16.65625 122.007812 17.265625 C 121.195312 17.570312 120.414062 17.871094 120.265625 17.9375 C 120.117188 18 119.183594 18.390625 118.1875 18.804688 C 115.171875 20.058594 113.582031 20.8125 111.085938 22.171875 C 109.59375 22.988281 106.410156 25.046875 105.671875 25.675781 C 105.386719 25.917969 105.382812 26.078125 105.726562 23.082031 C 105.996094 20.75 105.730469 19.910156 104.730469 19.910156 C 103.921875 19.910156 103.261719 20.332031 101.640625 21.878906 C 97.007812 26.300781 96.714844 26.554688 95.207031 27.464844 C 93.894531 28.253906 93.519531 28.3125 91.652344 28.039062 C 88.828125 27.621094 86.417969 28.054688 83.75 29.464844 C 82.085938 30.34375 80.859375 31.277344 79.457031 32.734375 C 77.804688 34.449219 76.3125 36.839844 75.714844 38.738281 C 75.433594 39.621094 75.550781 39.578125 73.164062 39.691406 C 71.992188 39.746094 70.925781 39.707031 69.613281 39.550781 C 64.003906 38.890625 62.710938 39.175781 59.832031 41.6875 C 59.609375 41.882812 59.128906 42.289062 58.765625 42.597656 C 58.398438 42.902344 58.003906 43.242188 57.886719 43.355469 C 57.769531 43.464844 57.195312 43.96875 56.609375 44.476562 C 55.492188 45.4375 53.03125 47.71875 50.316406 50.304688 C 49.433594 51.148438 45.964844 54.582031 42.613281 57.9375 L 36.515625 64.035156 L 35.890625 65.304688 C 35.550781 66 35.078125 67.171875 34.84375 67.90625 C 34.25 69.78125 33.390625 71.933594 32.925781 72.722656 C 31.917969 74.433594 28.378906 78.242188 24.464844 81.832031 C 23.589844 82.636719 22.714844 83.445312 22.523438 83.625 C 22.332031 83.804688 21.574219 84.496094 20.835938 85.164062 C 18.949219 86.867188 16.03125 89.820312 14.417969 91.664062 C 13.328125 92.90625 11.4375 95.554688 10.554688 97.078125 C 9.796875 98.382812 7.96875 102.292969 7.394531 103.835938 C 6.101562 107.308594 4.597656 113.164062 3.945312 117.265625 C 3.902344 117.550781 3.839844 117.914062 3.808594 118.070312 C 3.777344 118.226562 3.660156 118.925781 3.546875 119.625 C 3.4375 120.324219 3.289062 121.199219 3.21875 121.566406 C 3.152344 121.933594 3.027344 122.714844 2.945312 123.304688 C 2.859375 123.894531 2.765625 124.585938 2.726562 124.84375 C 2.691406 125.101562 2.640625 125.460938 2.609375 125.648438 C 2.582031 125.832031 2.519531 126.28125 2.46875 126.648438 C 2.421875 127.019531 2.363281 127.410156 2.34375 127.519531 C 2.324219 127.628906 2.234375 128.203125 2.148438 128.792969 C 2.0625 129.378906 1.96875 130.011719 1.941406 130.195312 C 1.84375 130.835938 1.175781 134.949219 1.144531 135.082031 C 1.128906 135.152344 1.066406 135.515625 1.011719 135.882812 C 0.953125 136.25 0.792969 137.0625 0.660156 137.691406 L 0.414062 138.828125 L 0.960938 139.898438 C 1.261719 140.484375 1.554688 141.027344 1.613281 141.101562 C 1.792969 141.332031 4.898438 147.589844 5.53125 148.996094 C 7.816406 154.089844 9.589844 159.171875 10.714844 163.847656 C 11.382812 166.636719 11.472656 167.0625 11.597656 167.878906 C 11.640625 168.164062 11.769531 168.847656 11.878906 169.398438 C 12.445312 172.191406 11.988281 173.277344 10.238281 173.296875 C 9.800781 173.300781 9.277344 173.242188 9.070312 173.160156 C 8.863281 173.082031 8.664062 173.015625 8.628906 173.015625 C 8.597656 173.015625 8.574219 174.503906 8.582031 176.328125 C 8.601562 181.703125 8.839844 182.976562 10.628906 187.132812 C 10.882812 187.722656 11.28125 188.652344 11.515625 189.207031 C 11.75 189.757812 12.03125 190.398438 12.136719 190.632812 C 12.242188 190.863281 12.328125 191.085938 12.328125 191.125 C 12.328125 191.160156 12.546875 191.664062 12.8125 192.242188 C 13.078125 192.816406 13.597656 193.980469 13.96875 194.824219 C 14.78125 196.703125 14.855469 196.867188 16.148438 199.710938 C 16.71875 200.960938 17.351562 202.375 17.554688 202.855469 C 17.757812 203.332031 18.328125 204.628906 18.828125 205.730469 C 19.324219 206.835938 19.9375 208.21875 20.1875 208.808594 C 20.441406 209.398438 20.707031 209.984375 20.777344 210.113281 C 20.847656 210.242188 21.050781 210.730469 21.226562 211.195312 C 21.402344 211.664062 21.695312 212.371094 21.875 212.769531 C 22.5 214.136719 23.40625 216.351562 25.285156 221.121094 C 25.820312 222.480469 27.804688 228.039062 28.003906 228.746094 C 28.066406 228.96875 28.261719 229.589844 28.429688 230.132812 L 28.742188 231.117188 L 29.714844 231.367188 C 31.253906 231.757812 32.351562 232.734375 33.226562 234.5 C 33.519531 235.089844 33.816406 235.933594 33.890625 236.375 C 34.03125 237.210938 34.238281 238.363281 34.375 239.050781 C 34.765625 241.039062 35.953125 244.652344 36.792969 246.410156 C 38.195312 249.335938 39.386719 251.117188 41.195312 253 C 43.636719 255.542969 46.628906 257.300781 49.757812 258.035156 C 51.101562 258.351562 51.480469 258.375 55.410156 258.394531 C 59.421875 258.414062 60.699219 258.539062 62.398438 259.097656 C 63.714844 259.527344 65.183594 260.394531 66.351562 261.433594 C 67.585938 262.527344 68.726562 263.273438 70.351562 264.050781 C 73.660156 265.636719 77.605469 266.480469 80.972656 266.328125 C 82.109375 266.277344 82.332031 266.300781 82.648438 266.523438 C 82.847656 266.664062 83.253906 266.898438 83.550781 267.042969 C 83.84375 267.1875 84.867188 267.714844 85.828125 268.214844 C 86.785156 268.710938 88.804688 269.753906 90.316406 270.527344 C 94.6875 272.761719 96.875 273.914062 97.929688 274.535156 C 98.472656 274.851562 98.9375 275.113281 98.96875 275.113281 C 99.078125 275.113281 102.195312 277.054688 103.449219 277.902344 C 104.585938 278.675781 104.792969 278.765625 105.390625 278.769531 C 106.1875 278.777344 106.671875 278.542969 107.109375 277.953125 C 107.402344 277.554688 107.449219 277.535156 107.617188 277.738281 C 107.761719 277.910156 107.792969 278.390625 107.765625 279.816406 L 107.730469 281.667969 L 108.101562 281.667969 C 108.308594 281.667969 109.257812 281.574219 110.214844 281.460938 C 116.210938 280.753906 119.199219 280.453125 122.140625 280.257812 C 122.878906 280.210938 123.753906 280.144531 124.085938 280.117188 C 125.421875 280 133.242188 279.964844 134.871094 280.066406 C 140.324219 280.414062 144.882812 281.171875 148.746094 282.371094 C 149.269531 282.535156 149.425781 282.535156 149.882812 282.371094 C 151.546875 281.769531 153.636719 281.554688 155.527344 281.789062 C 156.804688 281.945312 159.179688 282.613281 160.332031 283.136719 C 162.167969 283.976562 164.382812 285.144531 165.566406 285.898438 C 166.195312 286.296875 166.359375 286.335938 167.785156 286.421875 C 169.277344 286.515625 169.332031 286.507812 169.679688 286.199219 C 170.152344 285.785156 170.207031 285.351562 169.910156 284.46875 C 169.742188 283.976562 169.707031 283.695312 169.796875 283.585938 C 170.058594 283.269531 172.839844 282.203125 174.410156 281.816406 C 177.445312 281.066406 180.867188 280.429688 181.347656 280.519531 C 182.042969 280.648438 182.796875 281.269531 183.664062 282.425781 C 185.109375 284.351562 186.457031 285.464844 187.476562 285.578125 L 187.800781 285.617188 L 187.816406 283.542969 C 187.839844 280.039062 188.289062 279.164062 190.347656 278.601562 C 190.828125 278.472656 193.664062 278.5 195.472656 278.65625 L 196.039062 278.703125 L 195.953125 276.578125 C 195.828125 273.507812 195.882812 273.371094 197.976562 271.296875 C 198.871094 270.414062 200.050781 269.183594 200.601562 268.566406 C 203.824219 264.933594 205.96875 262.84375 207.765625 261.578125 C 208.683594 260.933594 209.710938 260.359375 209.714844 260.488281 C 209.714844 260.546875 210.09375 260.988281 210.550781 261.472656 C 211.941406 262.941406 213.523438 264.691406 213.636719 264.886719 C 213.890625 265.332031 213.992188 265.011719 213.945312 263.90625 C 213.898438 262.714844 213.710938 262.007812 213.085938 260.667969 C 212.695312 259.828125 212.472656 259.535156 211.144531 258.117188 C 209.730469 256.613281 209.386719 255.886719 209.945312 255.597656 C 210.210938 255.457031 214.1875 254.109375 214.601562 254.015625 C 216.628906 253.570312 217.578125 253.726562 219.113281 254.769531 C 219.648438 255.132812 220.109375 255.40625 220.136719 255.378906 C 220.164062 255.351562 219.964844 254.933594 219.695312 254.453125 C 219.03125 253.265625 219.019531 252.621094 219.644531 252.035156 C 220.683594 251.0625 221.867188 250.757812 224.601562 250.757812 C 226.683594 250.757812 227.367188 250.585938 228.328125 249.828125 C 229.328125 249.035156 230.1875 246.710938 230.210938 244.738281 C 230.214844 244.152344 230.300781 244.03125 233.128906 240.632812 C 237.164062 235.78125 237.574219 235.269531 238.714844 233.699219 C 238.820312 233.550781 239.148438 233.097656 239.445312 232.695312 C 240.484375 231.269531 243.695312 226.457031 244.488281 225.136719 C 244.925781 224.402344 245.359375 223.679688 245.449219 223.53125 C 245.539062 223.382812 245.65625 223.171875 245.710938 223.058594 C 245.761719 222.949219 245.984375 222.558594 246.203125 222.191406 C 248.335938 218.578125 251.320312 212.625 253.210938 208.207031 C 253.464844 207.617188 253.5625 207.394531 254.003906 206.402344 C 254.746094 204.730469 257.039062 198.824219 256.972656 198.757812 C 256.90625 198.691406 256.023438 199.3125 254.8125 200.277344 C 252.816406 201.867188 250.5 204.246094 248.949219 206.292969 C 248.015625 207.53125 247.644531 208.070312 246.5625 209.796875 C 246.3125 210.191406 245.804688 210.753906 245.433594 211.046875 C 244.804688 211.542969 244.710938 211.578125 244.058594 211.523438 C 243.59375 211.484375 243.175781 211.34375 242.804688 211.097656 C 242.496094 210.894531 242.230469 210.75 242.210938 210.773438 C 242.175781 210.816406 241.933594 211.574219 241.292969 213.691406 C 240.601562 215.957031 240.5 216.25 240.4375 216.1875 C 240.402344 216.152344 240.4375 215.398438 240.515625 214.515625 C 240.597656 213.632812 240.664062 212.65625 240.664062 212.339844 L 240.664062 211.769531 L 240.296875 212.113281 C 240.09375 212.300781 239.414062 212.839844 238.789062 213.316406 C 238.160156 213.789062 237.015625 214.675781 236.242188 215.285156 C 235.46875 215.894531 234.503906 216.640625 234.097656 216.941406 C 233.691406 217.242188 233.332031 217.523438 233.292969 217.566406 C 233.257812 217.605469 232.863281 217.910156 232.421875 218.234375 C 231.980469 218.558594 231.589844 218.863281 231.550781 218.902344 C 231.515625 218.945312 231.242188 219.160156 230.949219 219.375 C 230.652344 219.59375 230.34375 219.835938 230.261719 219.910156 C 230.175781 219.988281 229.9375 220.167969 229.734375 220.316406 C 229.527344 220.464844 229.082031 220.800781 228.746094 221.0625 C 227.628906 221.9375 223.222656 225.261719 222.671875 225.644531 C 222.375 225.855469 222.058594 226.09375 221.964844 226.179688 C 221.875 226.265625 221.65625 226.4375 221.484375 226.558594 C 221.308594 226.679688 220.414062 227.335938 219.492188 228.015625 C 218.570312 228.695312 217.457031 229.519531 217.011719 229.839844 C 216.570312 230.164062 215.695312 230.800781 215.070312 231.261719 C 214.445312 231.71875 213.296875 232.539062 212.523438 233.085938 C 211.75 233.632812 211.085938 234.117188 211.050781 234.160156 C 211.011719 234.203125 210.804688 234.351562 210.585938 234.492188 C 210.367188 234.632812 210.125 234.796875 210.046875 234.859375 C 209.691406 235.152344 206.777344 237.199219 204.417969 238.824219 C 203.902344 239.179688 202.964844 239.820312 202.339844 240.253906 C 200.671875 241.398438 192.664062 246.71875 191.445312 247.488281 C 188.8125 249.152344 187.4375 249.597656 186.109375 249.203125 C 185.355469 248.980469 184.414062 248.066406 183.972656 247.125 C 183.804688 246.769531 183.613281 246.476562 183.542969 246.476562 C 183.476562 246.476562 182.777344 247.039062 181.992188 247.726562 C 180.152344 249.339844 179.554688 249.714844 178.917969 249.660156 C 178.53125 249.628906 178.363281 249.523438 178.109375 249.152344 C 177.832031 248.746094 177.800781 248.574219 177.855469 247.8125 C 177.894531 247.335938 177.96875 246.832031 178.023438 246.695312 C 178.113281 246.476562 178.078125 246.457031 177.738281 246.527344 C 177.164062 246.644531 176.421875 246.648438 175.050781 246.535156 C 173.925781 246.445312 173.785156 246.460938 173.347656 246.730469 C 173.023438 246.933594 172.761719 247.265625 172.523438 247.789062 C 171.546875 249.917969 171.507812 249.9375 170.78125 248.613281 C 170.246094 247.640625 169.953125 247.355469 169.671875 247.53125 C 169.582031 247.585938 169.378906 248.5 169.21875 249.5625 C 168.949219 251.371094 168.707031 252.226562 168.707031 251.378906 C 168.707031 251.179688 168.613281 250.835938 168.5 250.617188 C 168.171875 249.984375 167.601562 250.066406 166.839844 250.863281 C 166.503906 251.210938 166.085938 251.789062 165.910156 252.140625 C 165.738281 252.492188 165.582031 252.761719 165.5625 252.742188 C 165.542969 252.71875 165.140625 252.132812 164.671875 251.445312 C 164.199219 250.757812 163.683594 250.003906 163.527344 249.773438 C 163.222656 249.335938 161.710938 247.734375 161.304688 247.425781 C 161.125 247.289062 161.15625 247.445312 161.453125 248.101562 C 162.28125 249.953125 162.492188 251.828125 161.871094 251.828125 C 161.734375 251.828125 161.410156 251.578125 161.144531 251.269531 C 160.882812 250.964844 160.644531 250.738281 160.617188 250.769531 C 160.589844 250.800781 160.527344 251.21875 160.484375 251.703125 C 160.207031 254.660156 160.242188 254.519531 159.621094 254.804688 C 159.339844 254.933594 158.433594 255.699219 157.601562 256.511719 C 156.773438 257.324219 155.882812 258.074219 155.628906 258.179688 C 155.375 258.285156 154.308594 258.4375 153.261719 258.515625 C 151.304688 258.660156 149.292969 258.882812 147.734375 259.121094 C 147.515625 259.15625 147.09375 259.21875 146.796875 259.261719 C 144.925781 259.542969 141.058594 260.320312 139.699219 260.691406 L 138.09375 261.128906 L 136.347656 260.6875 C 131.085938 259.359375 123.792969 257.929688 118.1875 257.121094 C 115.292969 256.707031 110.921875 256.203125 108.808594 256.046875 C 108.179688 256 107.546875 255.9375 107.402344 255.90625 C 107.253906 255.878906 106.46875 255.820312 105.660156 255.773438 C 104.15625 255.691406 103.347656 255.621094 102.511719 255.5 C 102.253906 255.460938 101.648438 255.375 101.171875 255.308594 C 100.691406 255.242188 100.148438 255.15625 99.964844 255.117188 C 99.78125 255.078125 99.296875 254.976562 98.890625 254.898438 C 94.207031 253.964844 88.933594 251.828125 83.789062 248.773438 L 81.886719 247.640625 L 82.652344 247.28125 C 83.671875 246.800781 84.742188 245.632812 85.019531 244.703125 C 85.261719 243.894531 85.265625 243.757812 85.082031 243.097656 C 84.953125 242.636719 84.6875 242.398438 84.6875 242.742188 C 84.6875 243.058594 83.820312 243.960938 83.230469 244.261719 C 82.664062 244.546875 80.921875 244.988281 78.683594 245.417969 L 77.839844 245.578125 L 76.472656 244.238281 C 74.339844 242.148438 73.5 241.339844 71.214844 239.183594 C 70.042969 238.078125 68.542969 236.65625 67.875 236.019531 C 67.210938 235.382812 66.367188 234.601562 66.003906 234.28125 C 65.644531 233.960938 65.097656 233.457031 64.792969 233.164062 C 64.488281 232.867188 63.582031 232.023438 62.777344 231.289062 C 61.976562 230.554688 61.128906 229.769531 60.898438 229.550781 C 60.496094 229.167969 58.394531 227.214844 56.359375 225.335938 C 55.839844 224.855469 54.875 223.949219 54.207031 223.320312 C 53.542969 222.6875 52.453125 221.664062 51.792969 221.042969 C 49.539062 218.9375 40.789062 210.15625 39.0625 208.273438 C 38.117188 207.242188 36.972656 206.007812 36.523438 205.53125 C 36.070312 205.050781 35.371094 204.269531 34.96875 203.792969 C 34.566406 203.3125 34.207031 202.890625 34.167969 202.855469 C 33.980469 202.679688 32.851562 201.269531 32.621094 200.925781 C 31.746094 199.621094 30.667969 197.660156 29.691406 195.585938 C 29.28125 194.71875 28.945312 193.980469 28.945312 193.945312 C 28.945312 193.914062 28.816406 193.601562 28.660156 193.253906 C 28.183594 192.183594 27.089844 189.496094 25.652344 185.859375 C 25.234375 184.792969 24.738281 183.589844 24.554688 183.183594 C 23.523438 180.921875 23.203125 180.269531 23.089844 180.199219 C 23.019531 180.15625 22.707031 180.386719 22.394531 180.707031 C 22.082031 181.03125 21.652344 181.332031 21.441406 181.378906 C 20.671875 181.546875 19.777344 180.769531 19.207031 179.4375 C 19.03125 179.035156 18.832031 178.597656 18.757812 178.46875 C 18.683594 178.34375 18.625 177.914062 18.625 177.519531 C 18.625 176.019531 19.660156 174.941406 20.777344 175.277344 C 21.0625 175.359375 21.480469 175.585938 21.707031 175.777344 C 21.933594 175.96875 22.15625 176.089844 22.199219 176.050781 C 22.257812 175.988281 20.148438 160.777344 19.910156 159.554688 C 19.878906 159.398438 19.816406 158.953125 19.765625 158.5625 C 19.714844 158.171875 19.65625 157.757812 19.636719 157.640625 C 19.207031 155.347656 19.550781 153.867188 21.332031 150.335938 C 21.921875 149.15625 22.523438 147.863281 22.664062 147.457031 C 22.902344 146.78125 23.3125 144.03125 23.511719 141.769531 C 23.554688 141.253906 23.710938 139.871094 23.851562 138.691406 C 23.992188 137.515625 24.144531 136.160156 24.1875 135.683594 C 24.230469 135.203125 24.324219 134.359375 24.390625 133.808594 C 24.460938 133.257812 24.578125 132.144531 24.65625 131.332031 C 24.734375 130.523438 24.910156 128.898438 25.054688 127.722656 C 25.195312 126.542969 25.34375 125.21875 25.386719 124.777344 C 25.425781 124.335938 25.578125 122.949219 25.722656 121.699219 C 25.867188 120.449219 26.023438 118.972656 26.070312 118.421875 C 26.121094 117.867188 26.179688 117.3125 26.203125 117.183594 C 26.230469 117.054688 26.316406 116.332031 26.398438 115.578125 C 26.550781 114.164062 26.867188 112.070312 27.066406 111.128906 C 27.128906 110.835938 27.21875 110.359375 27.261719 110.070312 C 27.417969 109.050781 28.074219 106.367188 28.621094 104.503906 C 28.71875 104.171875 28.890625 103.570312 29 103.167969 C 29.285156 102.125 31.097656 97.261719 31.617188 96.140625 C 31.855469 95.625 32.199219 94.875 32.382812 94.46875 C 32.777344 93.589844 33.871094 91.429688 34.351562 90.589844 C 34.539062 90.257812 34.769531 89.835938 34.863281 89.652344 C 34.953125 89.46875 35.378906 88.757812 35.804688 88.074219 C 36.234375 87.386719 36.582031 86.808594 36.582031 86.78125 C 36.582031 86.667969 39.445312 82.519531 40.328125 81.355469 C 42 79.144531 44.757812 75.867188 46.898438 73.535156 C 48.089844 72.238281 53.144531 67.179688 54.671875 65.757812 C 55.445312 65.035156 56.59375 63.960938 57.222656 63.367188 C 58.84375 61.839844 60.296875 60.492188 60.910156 59.949219 C 61.957031 59.023438 63.074219 58 64.722656 56.457031 C 68.097656 53.300781 69.515625 52.296875 74.636719 49.445312 C 75.410156 49.015625 76.496094 48.382812 77.050781 48.039062 C 78.28125 47.273438 80.6875 45.847656 80.867188 45.777344 C 80.941406 45.746094 81.253906 45.550781 81.5625 45.339844 C 81.871094 45.132812 82.152344 44.960938 82.191406 44.960938 C 82.226562 44.960938 83.351562 44.296875 84.6875 43.488281 C 86.023438 42.679688 87.136719 42.015625 87.160156 42.015625 C 87.179688 42.015625 87.867188 41.628906 88.6875 41.152344 C 90.21875 40.261719 91.0625 39.785156 91.992188 39.277344 C 92.285156 39.117188 92.769531 38.84375 93.0625 38.675781 C 93.722656 38.292969 98.578125 35.871094 99.496094 35.464844 C 99.863281 35.300781 100.464844 35.027344 100.835938 34.859375 C 101.203125 34.6875 101.988281 34.359375 102.578125 34.121094 C 103.167969 33.886719 103.828125 33.617188 104.050781 33.523438 C 104.691406 33.25 107.332031 32.296875 108.136719 32.042969 C 108.542969 31.917969 109.117188 31.734375 109.410156 31.632812 C 111.304688 31.003906 116.441406 29.789062 118.390625 29.511719 C 118.683594 29.472656 119.074219 29.40625 119.261719 29.371094 C 119.957031 29.234375 124.34375 28.777344 125.757812 28.691406 C 127.25 28.605469 131.246094 28.574219 135.40625 28.621094 C 138.003906 28.648438 138.640625 28.589844 139.835938 28.222656 C 141.285156 27.773438 142.339844 26.777344 142.875 25.351562 C 143.152344 24.617188 143.175781 24.308594 143.195312 21.527344 C 143.207031 19.859375 143.171875 18.429688 143.117188 18.34375 C 143.050781 18.230469 142.921875 18.226562 142.667969 18.324219 C 142.191406 18.503906 141.3125 18.542969 140.539062 18.417969 C 139.804688 18.300781 138.402344 17.433594 137.082031 16.28125 C 135.785156 15.148438 134.582031 14.367188 133.53125 13.972656 C 132.21875 13.480469 132.160156 13.480469 131.1875 13.859375 M 173.0625 22.335938 C 170.207031 22.414062 169.933594 22.441406 169.351562 22.730469 C 168.539062 23.125 167.570312 24.164062 167.144531 25.09375 C 166.820312 25.804688 166.660156 25.957031 166.5 25.703125 C 166.460938 25.632812 166.019531 25.441406 165.523438 25.277344 C 164.804688 25.039062 164.300781 24.972656 163.078125 24.964844 C 161.484375 24.953125 158.601562 25.101562 157.949219 25.226562 C 155.972656 25.601562 154.289062 27.054688 153.609375 28.96875 C 153.113281 30.371094 153.40625 32.441406 154.308594 33.867188 C 154.765625 34.59375 156.566406 36.410156 157.652344 37.242188 C 159.480469 38.640625 163.109375 40.414062 165.222656 40.9375 C 165.480469 41.003906 166.144531 41.175781 166.695312 41.320312 C 167.25 41.464844 168 41.625 168.363281 41.671875 C 168.726562 41.722656 169.0625 41.785156 169.109375 41.816406 C 169.15625 41.84375 169.640625 41.90625 170.1875 41.957031 C 170.738281 42.003906 171.21875 42.066406 171.265625 42.09375 C 171.308594 42.117188 172.179688 42.179688 173.207031 42.226562 C 174.78125 42.300781 175.152344 42.363281 175.605469 42.613281 C 176.75 43.253906 180.613281 45.488281 181.535156 46.046875 C 182.066406 46.367188 182.941406 46.898438 183.476562 47.222656 C 186.839844 49.253906 192.445312 52.90625 196.644531 55.800781 C 201.132812 58.894531 201.0625 58.84375 204.617188 61.378906 C 206.128906 62.453125 207.9375 63.742188 208.636719 64.242188 C 209.339844 64.742188 209.976562 65.203125 210.054688 65.273438 C 210.132812 65.339844 210.324219 65.464844 210.476562 65.546875 C 210.632812 65.628906 210.839844 65.773438 210.9375 65.867188 C 211.035156 65.960938 211.589844 66.367188 212.164062 66.773438 C 212.738281 67.175781 213.492188 67.71875 213.839844 67.976562 C 214.429688 68.417969 218.71875 71.472656 220.027344 72.382812 C 221.304688 73.273438 222.511719 74.121094 222.644531 74.222656 C 223.859375 75.167969 224.84375 75.601562 225.769531 75.601562 C 226.726562 75.601562 228.421875 75.015625 230.480469 73.976562 C 231.621094 73.398438 232.621094 72.925781 232.703125 72.925781 C 232.804688 72.925781 232.835938 73.59375 232.808594 75.101562 C 232.738281 78.96875 233.253906 81.1875 235.652344 87.328125 C 236.789062 90.234375 237.074219 90.824219 237.894531 91.925781 C 238.882812 93.253906 239.652344 93.945312 241.820312 95.445312 C 244.238281 97.125 245.527344 98.71875 246.28125 100.980469 C 246.8125 102.5625 246.835938 102.707031 246.921875 104.640625 C 247.003906 106.582031 246.675781 108.902344 246.066406 110.660156 L 245.707031 111.703125 L 246.730469 113.757812 C 248.734375 117.78125 250.511719 120.605469 252.734375 123.3125 C 253.601562 124.367188 255.898438 126.570312 256.695312 127.113281 C 258.007812 128.007812 258.144531 128.242188 258.175781 129.636719 C 258.214844 131.1875 258.308594 131.757812 258.636719 132.339844 C 259.390625 133.675781 260.835938 133.480469 261.992188 131.882812 L 262.371094 131.359375 L 262.371094 131.820312 C 262.371094 132.21875 262.089844 134.640625 261.902344 135.882812 C 261.867188 136.105469 261.75 137.1875 261.636719 138.292969 C 261.523438 139.394531 261.402344 140.570312 261.359375 140.902344 C 261.191406 142.273438 261.195312 146.648438 261.367188 148.148438 C 261.53125 149.585938 261.949219 151.671875 262.050781 151.570312 C 262.105469 151.515625 262.191406 150.71875 262.371094 148.59375 C 262.710938 144.640625 262.765625 144.066406 262.910156 143.175781 C 262.972656 142.769531 263.0625 142.078125 263.109375 141.636719 C 263.339844 139.394531 264.167969 134.75 264.871094 131.734375 C 265.496094 129.039062 267.019531 124.066406 267.480469 123.210938 C 267.652344 122.882812 267.4375 122.898438 266.707031 123.261719 C 265.894531 123.667969 265.375 124.285156 264.144531 126.316406 C 263.695312 127.058594 263.054688 127.519531 262.464844 127.519531 L 262.140625 127.519531 L 262.125 123.605469 C 262.113281 121.453125 262.078125 119.453125 262.042969 119.15625 C 262.007812 118.863281 261.945312 117.960938 261.902344 117.148438 C 261.828125 115.773438 261.777344 115.082031 261.636719 113.605469 C 261.605469 113.273438 261.542969 112.609375 261.5 112.132812 C 261.425781 111.269531 261.199219 109.15625 261.089844 108.25 C 261.058594 107.992188 261 107.480469 260.960938 107.113281 C 260.851562 106.117188 260.371094 102.335938 260.3125 102.03125 C 260.285156 101.882812 260.21875 101.402344 260.167969 100.957031 C 260.023438 99.730469 259.984375 99.410156 259.886719 98.683594 C 259.839844 98.316406 259.777344 97.847656 259.75 97.640625 C 259.726562 97.4375 259.671875 97.046875 259.628906 96.773438 C 259.589844 96.5 259.4375 95.234375 259.292969 93.957031 C 259.148438 92.683594 258.949219 91.5 258.855469 91.332031 C 258.472656 90.636719 258.042969 89.925781 257.378906 88.882812 C 256.992188 88.277344 256.257812 87.101562 255.75 86.273438 C 255.238281 85.445312 254.570312 84.375 254.265625 83.898438 C 253.753906 83.09375 252.683594 81.402344 251.984375 80.285156 C 251.820312 80.027344 251.394531 79.351562 251.035156 78.78125 C 250.675781 78.214844 250.199219 77.445312 249.976562 77.074219 C 249.757812 76.707031 249.273438 75.929688 248.90625 75.351562 C 248.535156 74.773438 248.023438 73.957031 247.765625 73.539062 C 247.507812 73.121094 246.929688 72.195312 246.476562 71.480469 C 246.027344 70.765625 243.742188 67.113281 241.398438 63.359375 C 239.058594 59.605469 236.890625 56.144531 236.582031 55.664062 C 235.976562 54.714844 233.582031 50.878906 232.636719 49.335938 C 231.109375 46.851562 225.925781 41.414062 222.574219 38.785156 C 222.167969 38.46875 221.808594 38.171875 221.769531 38.128906 C 221.691406 38.035156 219.570312 36.417969 219.136719 36.125 C 218.976562 36.015625 218.273438 35.519531 217.570312 35.023438 C 216.871094 34.527344 216.257812 34.121094 216.210938 34.121094 C 216.164062 34.121094 215.933594 33.976562 215.699219 33.800781 C 214.1875 32.675781 208.484375 29.609375 205.140625 28.132812 C 199.984375 25.851562 191.945312 23.261719 188.605469 22.808594 C 188.308594 22.765625 187.949219 22.710938 187.800781 22.6875 C 187.652344 22.660156 187.203125 22.601562 186.796875 22.550781 C 186.390625 22.503906 185.878906 22.429688 185.65625 22.394531 C 185.027344 22.285156 176.472656 22.246094 173.0625 22.335938 M 53.867188 88.480469 L 53.867188 92.730469 L 54.503906 92.738281 C 54.855469 92.746094 55.230469 92.769531 55.34375 92.789062 C 55.453125 92.8125 56.238281 92.871094 57.085938 92.921875 C 57.929688 92.972656 58.867188 93.035156 59.160156 93.0625 C 59.457031 93.09375 60.238281 93.152344 60.902344 93.195312 C 63.757812 93.378906 64.3125 93.421875 65.390625 93.546875 C 67.066406 93.742188 67.878906 94.304688 68.777344 95.878906 L 69.078125 96.410156 L 69.109375 149.660156 C 69.140625 197.539062 69.125 202.976562 68.9375 203.539062 C 68.824219 203.886719 68.496094 204.492188 68.210938 204.886719 C 67.328125 206.121094 66.277344 206.480469 63.046875 206.664062 C 61.605469 206.742188 60.445312 206.820312 58.960938 206.933594 C 58.554688 206.964844 57.53125 207.03125 56.683594 207.082031 C 55.835938 207.132812 55.019531 207.1875 54.871094 207.207031 C 54.726562 207.222656 54.4375 207.242188 54.238281 207.253906 L 53.867188 207.269531 L 53.867188 215.765625 L 75.105469 215.734375 L 96.347656 215.699219 L 96.347656 211.484375 C 96.347656 207.566406 96.328125 207.269531 96.113281 207.253906 C 95.984375 207.242188 95.757812 207.222656 95.609375 207.207031 C 95.460938 207.1875 94.675781 207.136719 93.867188 207.085938 C 92.472656 207 91.933594 206.964844 89.714844 206.808594 C 89.195312 206.773438 88.113281 206.710938 87.300781 206.667969 C 84.167969 206.5 83.066406 206.179688 82.132812 205.171875 C 81.828125 204.84375 81.421875 204.230469 81.226562 203.816406 L 80.867188 203.054688 L 80.839844 149.664062 C 80.816406 101.605469 80.832031 96.324219 81.015625 96.742188 C 81.214844 97.195312 81.640625 98.320312 81.875 99.019531 C 82.027344 99.472656 86.164062 110.84375 86.695312 112.265625 C 86.925781 112.890625 87.417969 114.246094 87.789062 115.277344 C 89.421875 119.824219 90.597656 123.058594 90.710938 123.304688 C 90.777344 123.453125 90.90625 123.804688 90.992188 124.085938 C 91.078125 124.371094 91.234375 124.761719 91.335938 124.957031 C 91.4375 125.152344 91.519531 125.390625 91.519531 125.488281 C 91.523438 125.585938 91.636719 125.945312 91.773438 126.292969 C 92.128906 127.175781 92.582031 128.417969 94.328125 133.273438 C 94.925781 134.929688 95.464844 136.40625 95.535156 136.550781 C 95.601562 136.699219 95.730469 137.0625 95.816406 137.355469 C 95.90625 137.648438 96.019531 137.949219 96.070312 138.023438 C 96.121094 138.097656 96.246094 138.429688 96.347656 138.761719 C 96.445312 139.089844 96.570312 139.421875 96.625 139.496094 C 96.675781 139.570312 96.816406 139.929688 96.929688 140.300781 C 97.042969 140.667969 97.328125 141.480469 97.558594 142.105469 C 97.785156 142.730469 98.027344 143.394531 98.089844 143.578125 C 98.148438 143.761719 98.441406 144.574219 98.734375 145.382812 C 100.464844 150.164062 100.78125 151.027344 100.886719 151.269531 C 101 151.535156 101.492188 152.859375 101.992188 154.25 C 102.128906 154.636719 102.359375 155.265625 102.5 155.652344 C 102.644531 156.039062 103.40625 158.132812 104.195312 160.304688 C 106.015625 165.296875 105.902344 164.984375 106.398438 166.324219 C 106.632812 166.949219 107.023438 168.035156 107.265625 168.734375 C 107.636719 169.785156 109.425781 174.691406 111.242188 179.640625 C 111.460938 180.226562 112.53125 183.179688 113.625 186.195312 C 114.71875 189.210938 115.804688 192.191406 116.039062 192.820312 C 116.699219 194.597656 116.949219 195.285156 117.714844 197.433594 C 118.722656 200.273438 119.914062 203.542969 120.058594 203.859375 C 120.125 204.003906 120.25 204.355469 120.335938 204.640625 C 120.425781 204.921875 120.578125 205.316406 120.679688 205.511719 C 120.78125 205.707031 120.867188 205.957031 120.871094 206.066406 C 120.875 206.175781 120.992188 206.507812 121.136719 206.800781 C 121.277344 207.097656 121.398438 207.410156 121.398438 207.5 C 121.402344 207.59375 121.550781 208.042969 121.730469 208.503906 C 121.910156 208.96875 122.179688 209.691406 122.332031 210.113281 C 122.484375 210.535156 122.726562 211.199219 122.871094 211.585938 C 123.011719 211.972656 123.410156 213.070312 123.75 214.027344 L 124.367188 215.765625 L 129.320312 215.765625 C 134.15625 215.765625 134.273438 215.761719 134.347656 215.5 C 134.394531 215.351562 134.671875 214.570312 134.972656 213.761719 C 135.269531 212.949219 135.621094 211.988281 135.753906 211.617188 C 135.882812 211.25 136.152344 210.527344 136.347656 210.011719 C 136.546875 209.5 136.738281 208.957031 136.78125 208.808594 C 136.820312 208.660156 136.898438 208.480469 136.953125 208.40625 C 137.007812 208.335938 137.117188 208.0625 137.191406 207.804688 C 137.265625 207.546875 137.457031 207.007812 137.617188 206.601562 C 137.777344 206.195312 138.332031 204.722656 138.847656 203.324219 C 139.921875 200.425781 140.804688 198.054688 141.390625 196.5 C 141.609375 195.910156 141.839844 195.277344 141.902344 195.09375 C 142.230469 194.132812 142.996094 192.046875 143.109375 191.816406 C 143.179688 191.667969 143.324219 191.308594 143.425781 191.011719 C 143.863281 189.75 144.34375 188.449219 144.457031 188.203125 C 144.527344 188.054688 145.179688 186.308594 145.910156 184.320312 C 146.640625 182.335938 147.332031 180.46875 147.445312 180.175781 C 147.558594 179.878906 147.890625 178.976562 148.183594 178.164062 C 148.476562 177.351562 148.777344 176.539062 148.851562 176.355469 C 148.925781 176.175781 149.117188 175.664062 149.277344 175.222656 C 149.4375 174.78125 149.648438 174.210938 149.746094 173.953125 C 149.84375 173.695312 150.054688 173.121094 150.214844 172.679688 C 150.375 172.238281 150.5625 171.757812 150.628906 171.609375 C 150.695312 171.464844 151.015625 170.621094 151.335938 169.738281 C 152.613281 166.238281 154.785156 160.34375 154.960938 159.902344 C 155.0625 159.644531 155.265625 159.101562 155.414062 158.699219 C 155.691406 157.925781 156.417969 155.988281 157.0625 154.28125 C 158.09375 151.558594 160.898438 143.992188 161.402344 142.574219 C 161.714844 141.691406 162.167969 140.457031 162.40625 139.832031 C 162.9375 138.429688 163.105469 137.976562 163.480469 136.953125 C 163.640625 136.511719 163.828125 136.03125 163.894531 135.882812 C 163.957031 135.734375 164.625 133.960938 165.371094 131.9375 C 166.640625 128.488281 167.363281 126.539062 168.320312 123.972656 C 168.542969 123.386719 168.800781 122.664062 168.898438 122.367188 C 168.992188 122.074219 169.136719 121.683594 169.210938 121.5 C 169.289062 121.316406 169.484375 120.804688 169.648438 120.359375 C 169.808594 119.917969 170.027344 119.367188 170.128906 119.136719 C 170.230469 118.90625 170.3125 118.648438 170.3125 118.566406 C 170.3125 118.484375 170.375 118.3125 170.445312 118.183594 C 170.519531 118.058594 171.007812 116.777344 171.535156 115.34375 C 172.414062 112.945312 173.703125 109.457031 175.144531 105.574219 C 175.457031 104.730469 175.824219 103.734375 175.953125 103.367188 C 176.085938 103 176.320312 102.367188 176.476562 101.960938 C 176.753906 101.253906 176.976562 100.652344 178.214844 97.277344 C 178.523438 96.433594 178.855469 95.558594 178.953125 95.339844 C 179.046875 95.117188 179.160156 94.847656 179.199219 94.738281 C 179.238281 94.625 179.277344 118.933594 179.28125 148.753906 C 179.289062 202.320312 179.289062 202.976562 179.027344 203.582031 C 178.640625 204.480469 178.199219 205.074219 177.535156 205.585938 C 176.488281 206.390625 176.050781 206.472656 170.917969 206.804688 C 170.253906 206.847656 169.46875 206.90625 169.175781 206.933594 C 168.878906 206.964844 167.976562 207.027344 167.164062 207.078125 C 166.355469 207.132812 165.570312 207.1875 165.421875 207.203125 C 165.277344 207.222656 165.019531 207.242188 164.851562 207.253906 L 164.550781 207.269531 L 164.550781 215.765625 L 214.132812 215.765625 L 214.132812 211.519531 C 214.132812 207.566406 214.117188 207.269531 213.898438 207.253906 C 213.769531 207.242188 213.542969 207.222656 213.394531 207.207031 C 213.246094 207.191406 212.492188 207.136719 211.71875 207.085938 C 210.261719 206.988281 209.324219 206.921875 207.835938 206.808594 C 207.355469 206.773438 206.390625 206.710938 205.691406 206.667969 C 203.023438 206.511719 202.289062 206.382812 201.394531 205.929688 C 200.757812 205.601562 200.050781 204.804688 199.613281 203.914062 L 199.257812 203.183594 L 199.257812 150.066406 C 199.257812 98.457031 199.265625 96.925781 199.507812 96.285156 C 199.820312 95.46875 200.84375 94.285156 201.550781 93.925781 C 202.105469 93.644531 203.257812 93.472656 205.488281 93.335938 C 206.226562 93.292969 207.128906 93.230469 207.5 93.199219 C 207.867188 93.167969 208.589844 93.109375 209.105469 93.074219 C 211.378906 92.914062 212.609375 92.820312 212.859375 92.792969 C 213.007812 92.777344 213.351562 92.757812 213.628906 92.746094 L 214.132812 92.730469 L 214.132812 84.234375 L 191.554688 84.265625 L 168.972656 84.300781 L 168.972656 87.160156 C 168.972656 89.683594 168.941406 90.09375 168.710938 90.671875 C 168.457031 91.3125 167.257812 94.535156 165.265625 99.957031 C 164.1875 102.886719 163.917969 103.613281 163.738281 104.035156 C 163.675781 104.183594 163.375 104.996094 163.074219 105.84375 C 162.769531 106.6875 162.4375 107.570312 162.332031 107.804688 C 162.226562 108.035156 162.140625 108.289062 162.140625 108.367188 C 162.140625 108.445312 162.054688 108.707031 161.949219 108.949219 C 161.84375 109.191406 161.625 109.75 161.460938 110.191406 C 160.996094 111.460938 160.777344 112.035156 160.582031 112.488281 C 160.480469 112.71875 160.398438 112.96875 160.398438 113.039062 C 160.398438 113.109375 160.210938 113.644531 159.984375 114.222656 C 159.753906 114.800781 159.445312 115.609375 159.296875 116.011719 C 159.144531 116.417969 158.96875 116.867188 158.902344 117.015625 C 158.839844 117.164062 158.730469 117.464844 158.664062 117.683594 C 158.59375 117.90625 158.359375 118.566406 158.136719 119.15625 C 157.914062 119.746094 157.550781 120.738281 157.324219 121.363281 C 157.097656 121.992188 156.828125 122.714844 156.726562 122.96875 C 156.625 123.226562 156.445312 123.695312 156.324219 124.007812 C 156.207031 124.320312 156.023438 124.800781 155.917969 125.078125 C 155.8125 125.355469 155.425781 126.394531 155.058594 127.386719 C 154.355469 129.285156 152.632812 133.925781 150.710938 139.09375 C 150.078125 140.789062 149.253906 143.015625 148.871094 144.046875 C 148.492188 145.074219 147.699219 147.214844 147.109375 148.796875 C 146.523438 150.378906 145.585938 152.90625 145.03125 154.414062 C 143.953125 157.347656 143.683594 158.074219 143.503906 158.496094 C 143.441406 158.644531 143.140625 159.457031 142.839844 160.304688 C 142.535156 161.148438 142.203125 162.03125 142.097656 162.265625 C 141.992188 162.496094 141.90625 162.75 141.90625 162.828125 C 141.90625 162.90625 141.820312 163.167969 141.71875 163.410156 C 141.617188 163.652344 141.441406 164.089844 141.332031 164.382812 C 141.226562 164.679688 141.003906 165.28125 140.839844 165.722656 C 140.675781 166.164062 140.488281 166.644531 140.425781 166.792969 C 140.359375 166.941406 140.160156 167.480469 139.976562 167.996094 C 139.796875 168.511719 139.519531 169.265625 139.363281 169.671875 C 138.839844 171.019531 138.671875 171.472656 138.488281 172.011719 C 138.386719 172.304688 138.121094 173.027344 137.902344 173.617188 C 137.679688 174.207031 137.320312 175.167969 137.101562 175.757812 C 136.882812 176.347656 136.542969 177.25 136.347656 177.765625 C 136.152344 178.28125 135.9375 178.851562 135.875 179.035156 C 135.8125 179.21875 135.613281 179.761719 135.433594 180.242188 C 135.25 180.71875 134.761719 182.039062 134.339844 183.179688 C 133.367188 185.828125 133.414062 185.753906 133.15625 185.042969 C 132.574219 183.40625 131.871094 181.472656 131.746094 181.175781 C 131.667969 180.992188 131.367188 180.179688 131.070312 179.371094 C 129.988281 176.386719 129.550781 175.195312 129.109375 174.019531 C 128.863281 173.355469 128.195312 171.550781 127.625 170.003906 C 127.054688 168.457031 126.351562 166.5625 126.066406 165.789062 C 125.777344 165.015625 125.371094 163.902344 125.15625 163.3125 C 124.941406 162.726562 124.546875 161.640625 124.273438 160.90625 C 124.003906 160.167969 123.585938 159.027344 123.339844 158.363281 C 123.097656 157.699219 122.617188 156.40625 122.273438 155.484375 C 121.929688 154.566406 121.4375 153.242188 121.179688 152.542969 C 120.925781 151.84375 120.46875 150.609375 120.171875 149.800781 C 119.875 148.988281 119.523438 148.027344 119.394531 147.660156 C 119.265625 147.289062 118.964844 146.476562 118.730469 145.851562 C 118.492188 145.226562 118.101562 144.171875 117.855469 143.511719 C 116.796875 140.636719 116.417969 139.613281 116.316406 139.363281 C 116.257812 139.214844 116.046875 138.644531 115.847656 138.089844 C 115.648438 137.539062 115.4375 136.96875 115.375 136.820312 C 115.316406 136.671875 115.132812 136.160156 114.964844 135.683594 C 114.800781 135.203125 114.589844 134.632812 114.496094 134.410156 C 114.402344 134.191406 114.132812 133.46875 113.894531 132.804688 C 113.484375 131.664062 113.167969 130.800781 112.082031 127.859375 C 111.824219 127.160156 111.402344 126.015625 111.144531 125.316406 C 110.886719 124.617188 110.472656 123.488281 110.222656 122.804688 C 109.976562 122.125 109.488281 120.8125 109.144531 119.894531 C 108.796875 118.972656 108.316406 117.679688 108.074219 117.015625 C 107.828125 116.355469 107.410156 115.226562 107.144531 114.507812 C 106.878906 113.789062 106.457031 112.644531 106.207031 111.964844 C 105.714844 110.617188 104.074219 106.179688 102.601562 102.230469 C 102.089844 100.859375 101.664062 99.679688 100.953125 97.679688 C 100.703125 96.980469 100.441406 96.289062 100.371094 96.140625 C 100.300781 95.996094 100.0625 95.363281 99.84375 94.738281 C 99.207031 92.933594 98.640625 91.390625 98.285156 90.5 C 97.972656 89.71875 97.953125 89.53125 97.953125 86.953125 L 97.953125 84.234375 L 53.867188 84.234375 L 53.867188 88.480469 M 21.660156 187.035156 C 21.621094 187.09375 21.765625 187.441406 21.972656 187.804688 C 22.550781 188.820312 23.390625 190.554688 23.558594 191.078125 C 23.640625 191.335938 23.765625 192.132812 23.839844 192.84375 C 23.949219 193.972656 24.027344 194.234375 24.425781 194.859375 C 25.023438 195.785156 25.914062 196.492188 27.222656 197.066406 L 27.84375 197.339844 L 27.210938 196.300781 C 26.660156 195.390625 25.824219 193.628906 24.894531 191.414062 C 23.808594 188.828125 23.003906 187.457031 22.390625 187.136719 C 21.941406 186.90625 21.753906 186.882812 21.660156 187.035156 M 18.140625 187.570312 C 17.496094 188.089844 17.386719 188.769531 17.871094 189.234375 C 18.046875 189.402344 18.808594 190.320312 19.566406 191.273438 C 20.320312 192.230469 20.90625 192.890625 20.859375 192.746094 C 19.605469 188.582031 19.257812 187.527344 19.125 187.441406 C 18.855469 187.269531 18.441406 187.324219 18.140625 187.570312 "/>
</g>
</svg>
